<svg id="Layer_1" height="512" viewBox="0 0 512 512" width="512" xmlns="http://www.w3.org/2000/svg" data-name="Layer 1"><path d="m102.432 283.724a30.208 30.208 0 0 1 0-55.448 30.21 30.21 0 1 0 0 55.448z" fill="#d4e1f4"/><path d="m122.788 409.5a30.21 30.21 0 1 0 0 55.448 30.209 30.209 0 0 1 0-55.448z" fill="#d4e1f4"/><path d="m122.788 47.055a30.21 30.21 0 1 0 0 55.448 30.209 30.209 0 0 1 0-55.448z" fill="#d4e1f4"/><path d="m58.21 127.937a30.209 30.209 0 1 0 0 55.447 30.209 30.209 0 0 1 0-55.447z" fill="#d4e1f4"/><path d="m58.21 328.616a30.209 30.209 0 1 0 0 55.447 30.209 30.209 0 0 1 0-55.447z" fill="#d4e1f4"/><path d="m135.909 403.257h93.177v12h-93.177z" fill="#1ae5be" transform="matrix(.952 -.305 .305 .952 -116.3 75.316)"/><path d="m121 251h105v12h-105z" fill="#1ae5be"/><path d="m238.54 279.212-42.353 46.386-29.041-22.497 65.512-25.316-4.326-11.194-72.266 27.926-35.09-27.184-7.35 9.486 29.366 22.75-77.146 29.812 4.326 11.193 83.9-32.421 33.996 26.336-24.183 26.485-86.147-12.782-1.761 11.87 78.153 11.596-32.263 35.334 8.862 8.092 37.711-41.302 57.539 8.537 1.761-11.87-49.544-7.351 19.39-21.236 33.377 25.857 7.35-9.487-32.609-25.261 41.697-45.667z" fill="#1ae5be"/><path d="m238.349 153.739-7.422-9.429-29.889 23.523-22.694-26.849 48.132-3.384-.842-11.971-56.887 3.999-31.578-37.36-9.164 7.746 25.912 30.657-80.586 5.666.842 11.971 89.342-6.282 28.089 33.233-30.581 24.068-82.831-40.314-5.252 10.79 77.606 37.77-36.956 29.086 7.422 9.43 41.522-32.681 65.335 31.799 5.252-10.79-60.108-29.255 26.341-20.732 40.104 47.448 9.164-7.746-39.833-47.128z" fill="#1ae5be"/><path d="m179.025 50.343h12v94.251h-12z" fill="#1ae5be" transform="matrix(.337 -.942 .942 .337 30.923 238.843)"/><path d="m324.376 362.669h12v93.177h-12z" fill="#1ae5be" transform="matrix(.305 -.952 .952 .305 -160.239 598.826)"/><path d="m287 251h105v12h-105z" fill="#1ae5be"/><path d="m273.416 231.878 40.104-47.448 26.341 20.732-60.109 29.255 5.252 10.79 65.335-31.799 41.523 32.681 7.422-9.43-36.956-29.086 77.606-37.77-5.252-10.79-82.831 40.314-30.58-24.068 28.088-33.233 89.341 6.282.842-11.971-80.586-5.666 25.912-30.657-9.164-7.746-31.577 37.36-56.887-3.999-.842 11.971 48.131 3.384-22.693 26.85-29.89-23.524-7.422 9.429 29.561 23.265-39.833 47.128z" fill="#1ae5be"/><path d="m280.723 91.468h94.251v12h-94.251z" fill="#1ae5be" transform="matrix(.942 -.337 .337 .942 -13.671 116.151)"/><path d="m399.248 276.819-7.35-9.486-35.09 27.184-72.267-27.926-4.326 11.194 65.513 25.316-29.04 22.497-42.354-46.386-8.861 8.092 41.697 45.667-32.609 25.261 7.349 9.487 33.378-25.857 19.39 21.236-49.544 7.351 1.762 11.87 57.538-8.537 37.712 41.302 8.861-8.092-32.263-35.334 78.153-11.596-1.761-11.87-86.147 12.782-24.183-26.486 33.995-26.335 83.9 32.421 4.326-11.193-77.146-29.812z" fill="#1ae5be"/><path d="m153.943 66.146 3.244 1.19a6 6 0 1 0 4.132-11.266l-3.243-1.19a6 6 0 0 0 -4.133 11.266z" fill="#1ae5be"/><path d="m175.257 73.966 41.195 15.116a6 6 0 0 0 4.133-11.266l-41.195-15.116a6 6 0 1 0 -4.133 11.265z" fill="#1ae5be"/><g fill="#0635c9"><path d="m64.827 281.6a36.21 36.21 0 1 0 0-51.208 36.093 36.093 0 0 0 0 51.208zm8.485-42.723a24.21 24.21 0 1 1 0 34.238 24.134 24.134 0 0 1 0-34.234z"/><path d="m46.211 191.854a36.194 36.194 0 1 0 -25.6-10.589 36.094 36.094 0 0 0 25.6 10.589zm-17.12-53.312a24.21 24.21 0 1 1 0 34.238 24.138 24.138 0 0 1 0-34.238z"/><path d="m71.814 330.735a36.194 36.194 0 1 0 0 51.209 36.252 36.252 0 0 0 0-51.209zm-8.484 42.723a24.2 24.2 0 1 1 0-34.238 24.237 24.237 0 0 1 0 34.238z"/><path d="m85.185 411.617a36.21 36.21 0 1 0 51.208 0 36.248 36.248 0 0 0 -51.208 0zm42.723 42.723a24.2 24.2 0 1 1 0-34.238 24.237 24.237 0 0 1 0 34.238z"/><path d="m85.185 49.174a36.21 36.21 0 1 0 51.208 0 36.248 36.248 0 0 0 -51.208 0zm42.723 42.726a24.2 24.2 0 1 1 0-34.238 24.238 24.238 0 0 1 0 34.238z"/><path d="m229.959 230.4a36.21 36.21 0 1 0 51.208 0 36.249 36.249 0 0 0 -51.208 0zm42.724 42.723a24.2 24.2 0 1 1 0-34.238 24.24 24.24 0 0 1 0 34.234z"/><path d="m229.959 102.058a36.21 36.21 0 1 0 51.208 0 36.25 36.25 0 0 0 -51.208 0zm42.724 42.724a24.2 24.2 0 1 1 0-34.239 24.241 24.241 0 0 1 0 34.239z"/><path d="m229.959 358.733a36.21 36.21 0 1 0 51.208 0 36.25 36.25 0 0 0 -51.208 0zm42.724 42.724a24.2 24.2 0 1 1 0-34.239 24.241 24.241 0 0 1 0 34.239z"/><path d="m395.965 281.6a36.21 36.21 0 1 0 0-51.208 36.09 36.09 0 0 0 0 51.208zm8.484-42.723a24.21 24.21 0 1 1 0 34.238 24.137 24.137 0 0 1 0-34.234z"/><path d="m440.186 130.056a36.21 36.21 0 1 0 51.208 0 36.248 36.248 0 0 0 -51.208 0zm42.723 42.724a24.2 24.2 0 1 1 0-34.238 24.239 24.239 0 0 1 0 34.238z"/><path d="m440.186 330.735a36.21 36.21 0 1 0 51.208 0 36.248 36.248 0 0 0 -51.208 0zm42.723 42.723a24.2 24.2 0 1 1 0-34.238 24.238 24.238 0 0 1 0 34.238z"/><path d="m375.607 411.617a36.21 36.21 0 1 0 51.208 0 36.25 36.25 0 0 0 -51.208 0zm42.724 42.723a24.2 24.2 0 1 1 0-34.238 24.238 24.238 0 0 1 0 34.238z"/><path d="m401.211 110.972a36.194 36.194 0 1 0 -25.6-10.589 36.095 36.095 0 0 0 25.6 10.589zm-17.119-53.312a24.21 24.21 0 1 1 0 34.238 24.135 24.135 0 0 1 0-34.238z"/></g></svg>