<svg id="Layer_1" height="512" viewBox="0 0 512 512" width="512" xmlns="http://www.w3.org/2000/svg" data-name="Layer 1"><path d="m46 132v-23.82a40.156 40.156 0 0 1 40-40.18h-30a40.156 40.156 0 0 0 -40 40.18v295.64a40.156 40.156 0 0 0 40 40.18h30a40.156 40.156 0 0 1 -40-40.18z" fill="#d4e1f4"/><path d="m449 168a6 6 0 0 0 -6-6h-374a6 6 0 0 0 -6 6v236a6 6 0 0 0 6 6h374a6 6 0 0 0 6-6zm-153.949 47.08a11.536 11.536 0 1 1 -11.535 11.535 11.549 11.549 0 0 1 11.535-11.535zm-33.051 182.92v-99a7.224 7.224 0 0 1 5.658-7.064 23.552 23.552 0 1 0 1.427-12.165 19.233 19.233 0 0 0 -19.085 19.229v99h-11v-46.441c0-10.607-8.429-19.559-19.036-19.559h-8.109a23.667 23.667 0 1 0 -.08 12h8.189c3.99 0 7.036 3.569 7.036 7.559v46.441h-152v-134h21.606a7.218 7.218 0 0 1 7.394 7.043v3.788a19.067 19.067 0 0 0 19.079 19.169h19.475a23.109 23.109 0 0 0 22.484 16.607 23.54 23.54 0 0 0 0-47.079c-11.248 0-20.673 8.472-22.986 18.472h-18.973a7.055 7.055 0 0 1 -7.079-7.169v-3.788a19.229 19.229 0 0 0 -19.394-19.043h-21.606v-78h152v33.076c0 3.99-3.581 6.924-7.571 6.924h-30.129a23.664 23.664 0 1 0 -.064 12h30.189c10.611 0 19.575-8.317 19.575-18.924v-33.076h52v29.521a23.519 23.519 0 1 0 27.882 23.094 23.846 23.846 0 0 0 -15.882-22.315v-30.3h134v41h-63.489c-10.611 0-19.511 8.171-19.511 18.778v19.789a23.639 23.639 0 1 0 12 0v-19.789c0-3.99 3.521-6.778 7.511-6.778h63.489v130h-90.7a22.881 22.881 0 0 0 -22.794-17.9 23.458 23.458 0 0 0 -23.535 23.415 23.717 23.717 0 0 0 23.535 23.717 23.434 23.434 0 0 0 22.724-17.232h90.77v29zm17.378-109.516a11.536 11.536 0 1 1 11.536 11.536 11.549 11.549 0 0 1 -11.536-11.536zm-78.784 49.7a11.536 11.536 0 1 1 -11.536-11.535 11.549 11.549 0 0 1 11.536 11.531zm-47.094-51.079a11.536 11.536 0 1 1 11.535 11.536 11.549 11.549 0 0 1 -11.535-11.536zm24.547-66.9a11.536 11.536 0 1 1 -11.535-11.535 11.549 11.549 0 0 1 11.538 11.53zm182.224 44.588a11.536 11.536 0 1 1 -11.535 11.536 11.549 11.549 0 0 1 11.538-11.54zm-25.23 97.6a11.536 11.536 0 1 1 -11.536-11.536 11.549 11.549 0 0 1 11.539 11.534z" fill="#1ae5be"/><g fill="#0635c9"><path d="m502 108a46 46 0 0 0 -46-46h-400a46 46 0 0 0 -46 46v296a46 46 0 0 0 46 46h400a46 46 0 0 0 46-46zm-446-34h112v54h-146v-19.818a34.2 34.2 0 0 1 34-34.182zm400 364h-400a34.2 34.2 0 0 1 -34-34.182v-263.818h468v263.818a34.2 34.2 0 0 1 -34 34.182zm34-310h-310v-54h276a34.2 34.2 0 0 1 34 34.182z"/><path d="m62.364 109.343a8.182 8.182 0 1 0 -8.182-8.182 8.191 8.191 0 0 0 8.182 8.182z"/><path d="m95.091 109.343a8.182 8.182 0 1 0 -8.182-8.182 8.191 8.191 0 0 0 8.182 8.182z"/><path d="m127.818 109.343a8.182 8.182 0 1 0 -8.182-8.182 8.191 8.191 0 0 0 8.182 8.182z"/><path d="m42 156a6 6 0 0 0 -6 6v2a6 6 0 0 0 12 0v-2a6 6 0 0 0 -6-6z"/><path d="m42 178a6 6 0 0 0 -6 6v92a6 6 0 0 0 12 0v-92a6 6 0 0 0 -6-6z"/></g></svg>